<mxfile host="app.diagrams.net" agent="Mozilla/5.0 (Macintosh; Intel Mac OS X 10_15_7) AppleWebKit/537.36 (KHTML, like Gecko) Chrome/140.0.0.0 Safari/537.36" version="28.1.1">
  <diagram name="Page-1" id="1SaJK4QJmozZwHA5n9lj">
    <mxGraphModel dx="946" dy="535" grid="1" gridSize="10" guides="1" tooltips="1" connect="1" arrows="1" fold="1" page="1" pageScale="1" pageWidth="827" pageHeight="1169" math="0" shadow="0">
      <root>
        <mxCell id="0" />
        <mxCell id="1" parent="0" />
        <mxCell id="1xBhV_vblewTtPQ-xvQc-46" value="" style="rounded=0;whiteSpace=wrap;html=1;fillColor=light-dark(#A20025,#FFE6EA);fontColor=#ffffff;strokeColor=#6F0000;" vertex="1" parent="1">
          <mxGeometry x="40" width="760" height="720" as="geometry" />
        </mxCell>
        <mxCell id="1xBhV_vblewTtPQ-xvQc-43" value="" style="rounded=0;whiteSpace=wrap;html=1;fillColor=#1ba1e2;fontColor=#ffffff;strokeColor=#006EAF;" vertex="1" parent="1">
          <mxGeometry x="560" y="360" width="140" height="100" as="geometry" />
        </mxCell>
        <mxCell id="1xBhV_vblewTtPQ-xvQc-44" value="" style="rounded=0;whiteSpace=wrap;html=1;fillColor=#1ba1e2;fontColor=#ffffff;strokeColor=#006EAF;" vertex="1" parent="1">
          <mxGeometry x="560" y="480" width="140" height="100" as="geometry" />
        </mxCell>
        <mxCell id="1xBhV_vblewTtPQ-xvQc-45" value="" style="rounded=0;whiteSpace=wrap;html=1;fillColor=#1ba1e2;fontColor=#ffffff;strokeColor=#006EAF;" vertex="1" parent="1">
          <mxGeometry x="560" y="600" width="140" height="100" as="geometry" />
        </mxCell>
        <mxCell id="1xBhV_vblewTtPQ-xvQc-42" value="" style="rounded=0;whiteSpace=wrap;html=1;fillColor=#1ba1e2;fontColor=#ffffff;strokeColor=#006EAF;" vertex="1" parent="1">
          <mxGeometry x="560" y="240" width="140" height="100" as="geometry" />
        </mxCell>
        <mxCell id="1xBhV_vblewTtPQ-xvQc-41" value="" style="rounded=0;whiteSpace=wrap;html=1;fillColor=#1ba1e2;fontColor=#ffffff;strokeColor=#006EAF;" vertex="1" parent="1">
          <mxGeometry x="350" y="310" width="140" height="220" as="geometry" />
        </mxCell>
        <mxCell id="1xBhV_vblewTtPQ-xvQc-1" value="frames" style="rounded=0;whiteSpace=wrap;html=1;fillColor=#008a00;fontColor=#ffffff;strokeColor=light-dark(#005700,#000000);strokeWidth=1;" vertex="1" parent="1">
          <mxGeometry x="80" y="320" width="80" height="40" as="geometry" />
        </mxCell>
        <mxCell id="1xBhV_vblewTtPQ-xvQc-2" value="" style="endArrow=classic;html=1;rounded=0;strokeColor=light-dark(#000000,#000000);strokeWidth=2;" edge="1" parent="1">
          <mxGeometry width="50" height="50" relative="1" as="geometry">
            <mxPoint x="150" y="340" as="sourcePoint" />
            <mxPoint x="200" y="340" as="targetPoint" />
          </mxGeometry>
        </mxCell>
        <mxCell id="1xBhV_vblewTtPQ-xvQc-5" value="" style="rounded=0;whiteSpace=wrap;html=1;fillColor=#1ba1e2;fontColor=#ffffff;strokeColor=#006EAF;" vertex="1" parent="1">
          <mxGeometry x="200" y="320" width="120" height="80" as="geometry" />
        </mxCell>
        <mxCell id="1xBhV_vblewTtPQ-xvQc-6" value="elements" style="rounded=0;whiteSpace=wrap;html=1;fillColor=#008a00;fontColor=#ffffff;strokeColor=light-dark(#000000,#000000);" vertex="1" parent="1">
          <mxGeometry x="220" y="330" width="80" height="40" as="geometry" />
        </mxCell>
        <mxCell id="1xBhV_vblewTtPQ-xvQc-7" value="Rectangle[ ]&amp;nbsp;&lt;span style=&quot;background-color: transparent; color: light-dark(rgb(0, 0, 0), rgb(255, 255, 255));&quot;&gt;reference&lt;/span&gt;" style="text;html=1;align=center;verticalAlign=middle;resizable=0;points=[];autosize=1;strokeColor=none;fillColor=none;" vertex="1" parent="1">
          <mxGeometry x="190" y="370" width="140" height="30" as="geometry" />
        </mxCell>
        <mxCell id="1xBhV_vblewTtPQ-xvQc-8" value="ArrayList&amp;lt;Rectangle&amp;gt;&lt;div&gt;reference&lt;/div&gt;" style="text;html=1;align=center;verticalAlign=middle;resizable=0;points=[];autosize=1;fontColor=light-dark(#000000,#000000);" vertex="1" parent="1">
          <mxGeometry x="50" y="360" width="140" height="40" as="geometry" />
        </mxCell>
        <mxCell id="1xBhV_vblewTtPQ-xvQc-9" value="ArrayList&amp;lt;Rectangle&amp;gt;&lt;div&gt;instance&lt;/div&gt;" style="text;html=1;align=center;verticalAlign=middle;resizable=0;points=[];autosize=1;strokeWidth=0;fontColor=light-dark(#000000,#000000);" vertex="1" parent="1">
          <mxGeometry x="190" y="400" width="140" height="40" as="geometry" />
        </mxCell>
        <mxCell id="1xBhV_vblewTtPQ-xvQc-10" value="length = 4" style="rounded=0;whiteSpace=wrap;html=1;fillColor=#fa6800;fontColor=#000000;strokeColor=#C73500;" vertex="1" parent="1">
          <mxGeometry x="360" y="320" width="120" height="40" as="geometry" />
        </mxCell>
        <mxCell id="1xBhV_vblewTtPQ-xvQc-11" value="&lt;div&gt;&lt;br&gt;&lt;/div&gt;Rectangle reference" style="rounded=0;whiteSpace=wrap;html=1;fillColor=#008a00;fontColor=#ffffff;strokeColor=light-dark(#005700,#000000);strokeWidth=1;" vertex="1" parent="1">
          <mxGeometry x="360" y="360" width="120" height="40" as="geometry" />
        </mxCell>
        <mxCell id="1xBhV_vblewTtPQ-xvQc-17" value="&lt;div&gt;&lt;br&gt;&lt;/div&gt;Rectangle reference" style="rounded=0;whiteSpace=wrap;html=1;fillColor=#008a00;fontColor=#ffffff;strokeColor=light-dark(#005700,#000000);strokeWidth=1;" vertex="1" parent="1">
          <mxGeometry x="360" y="400" width="120" height="40" as="geometry" />
        </mxCell>
        <mxCell id="1xBhV_vblewTtPQ-xvQc-18" value="&lt;div&gt;&lt;br&gt;&lt;/div&gt;Rectangle reference" style="rounded=0;whiteSpace=wrap;html=1;fillColor=#008a00;fontColor=#ffffff;strokeColor=light-dark(#005700,#000000);strokeWidth=1;" vertex="1" parent="1">
          <mxGeometry x="360" y="440" width="120" height="40" as="geometry" />
        </mxCell>
        <mxCell id="1xBhV_vblewTtPQ-xvQc-19" value="&lt;div&gt;&lt;br&gt;&lt;/div&gt;Rectangle reference" style="rounded=0;whiteSpace=wrap;html=1;fillColor=#008a00;fontColor=#ffffff;strokeColor=light-dark(#005700,#000000);strokeWidth=1;" vertex="1" parent="1">
          <mxGeometry x="360" y="480" width="120" height="40" as="geometry" />
        </mxCell>
        <mxCell id="1xBhV_vblewTtPQ-xvQc-21" value="" style="endArrow=classic;html=1;rounded=0;strokeColor=light-dark(#000000,#000000);strokeWidth=2;" edge="1" parent="1">
          <mxGeometry width="50" height="50" relative="1" as="geometry">
            <mxPoint x="470" y="380" as="sourcePoint" />
            <mxPoint x="560" y="280" as="targetPoint" />
          </mxGeometry>
        </mxCell>
        <mxCell id="1xBhV_vblewTtPQ-xvQc-22" value="" style="endArrow=classic;html=1;rounded=0;strokeColor=light-dark(#000000,#000000);strokeWidth=2;" edge="1" parent="1">
          <mxGeometry width="50" height="50" relative="1" as="geometry">
            <mxPoint x="470" y="420" as="sourcePoint" />
            <mxPoint x="560" y="400" as="targetPoint" />
          </mxGeometry>
        </mxCell>
        <mxCell id="1xBhV_vblewTtPQ-xvQc-23" value="" style="endArrow=classic;html=1;rounded=0;strokeColor=light-dark(#000000,#000000);strokeWidth=2;" edge="1" parent="1">
          <mxGeometry width="50" height="50" relative="1" as="geometry">
            <mxPoint x="470" y="450" as="sourcePoint" />
            <mxPoint x="560" y="520" as="targetPoint" />
          </mxGeometry>
        </mxCell>
        <mxCell id="1xBhV_vblewTtPQ-xvQc-24" value="" style="endArrow=classic;html=1;rounded=0;strokeColor=light-dark(#000000,#000000);strokeWidth=2;" edge="1" parent="1">
          <mxGeometry width="50" height="50" relative="1" as="geometry">
            <mxPoint x="470" y="490" as="sourcePoint" />
            <mxPoint x="560" y="640" as="targetPoint" />
          </mxGeometry>
        </mxCell>
        <mxCell id="1xBhV_vblewTtPQ-xvQc-25" value="width = 5" style="rounded=0;whiteSpace=wrap;html=1;fillColor=#fa6800;fontColor=#000000;strokeColor=#C73500;" vertex="1" parent="1">
          <mxGeometry x="570" y="250" width="120" height="40" as="geometry" />
        </mxCell>
        <mxCell id="1xBhV_vblewTtPQ-xvQc-26" value="height = 20" style="rounded=0;whiteSpace=wrap;html=1;fillColor=#fa6800;fontColor=#000000;strokeColor=#C73500;" vertex="1" parent="1">
          <mxGeometry x="570" y="290" width="120" height="40" as="geometry" />
        </mxCell>
        <mxCell id="1xBhV_vblewTtPQ-xvQc-28" value="Rectangle&amp;nbsp;&lt;div&gt;instance&lt;/div&gt;" style="text;html=1;align=center;verticalAlign=middle;resizable=0;points=[];autosize=1;fontColor=light-dark(#000000,#000000);" vertex="1" parent="1">
          <mxGeometry x="690" y="270" width="80" height="40" as="geometry" />
        </mxCell>
        <mxCell id="1xBhV_vblewTtPQ-xvQc-29" value="width = 10" style="rounded=0;whiteSpace=wrap;html=1;fillColor=#fa6800;fontColor=#000000;strokeColor=#C73500;" vertex="1" parent="1">
          <mxGeometry x="570" y="370" width="120" height="40" as="geometry" />
        </mxCell>
        <mxCell id="1xBhV_vblewTtPQ-xvQc-30" value="height = 4" style="rounded=0;whiteSpace=wrap;html=1;fillColor=#fa6800;fontColor=#000000;strokeColor=#C73500;" vertex="1" parent="1">
          <mxGeometry x="570" y="410" width="120" height="40" as="geometry" />
        </mxCell>
        <mxCell id="1xBhV_vblewTtPQ-xvQc-31" value="Rectangle&amp;nbsp;&lt;div&gt;instance&lt;/div&gt;" style="text;html=1;align=center;verticalAlign=middle;resizable=0;points=[];autosize=1;fontColor=light-dark(#000000,#000000);" vertex="1" parent="1">
          <mxGeometry x="690" y="390" width="80" height="40" as="geometry" />
        </mxCell>
        <mxCell id="1xBhV_vblewTtPQ-xvQc-32" value="width = 1" style="rounded=0;whiteSpace=wrap;html=1;fillColor=#fa6800;fontColor=#000000;strokeColor=#C73500;" vertex="1" parent="1">
          <mxGeometry x="570" y="490" width="120" height="40" as="geometry" />
        </mxCell>
        <mxCell id="1xBhV_vblewTtPQ-xvQc-33" value="height = 6" style="rounded=0;whiteSpace=wrap;html=1;fillColor=#fa6800;fontColor=#000000;strokeColor=#C73500;" vertex="1" parent="1">
          <mxGeometry x="570" y="530" width="120" height="40" as="geometry" />
        </mxCell>
        <mxCell id="1xBhV_vblewTtPQ-xvQc-34" value="Rectangle&amp;nbsp;&lt;div&gt;instance&lt;/div&gt;" style="text;html=1;align=center;verticalAlign=middle;resizable=0;points=[];autosize=1;fontColor=light-dark(#000000,#000000);" vertex="1" parent="1">
          <mxGeometry x="690" y="510" width="80" height="40" as="geometry" />
        </mxCell>
        <mxCell id="1xBhV_vblewTtPQ-xvQc-35" value="width = 8" style="rounded=0;whiteSpace=wrap;html=1;fillColor=#fa6800;fontColor=#000000;strokeColor=#C73500;" vertex="1" parent="1">
          <mxGeometry x="570" y="610" width="120" height="40" as="geometry" />
        </mxCell>
        <mxCell id="1xBhV_vblewTtPQ-xvQc-36" value="height = 8" style="rounded=0;whiteSpace=wrap;html=1;fillColor=#fa6800;fontColor=#000000;strokeColor=#C73500;" vertex="1" parent="1">
          <mxGeometry x="570" y="650" width="120" height="40" as="geometry" />
        </mxCell>
        <mxCell id="1xBhV_vblewTtPQ-xvQc-37" value="Rectangle&amp;nbsp;&lt;div&gt;instance&lt;/div&gt;" style="text;html=1;align=center;verticalAlign=middle;resizable=0;points=[];autosize=1;fontColor=light-dark(#000000,#000000);" vertex="1" parent="1">
          <mxGeometry x="690" y="630" width="80" height="40" as="geometry" />
        </mxCell>
        <mxCell id="1xBhV_vblewTtPQ-xvQc-38" value="" style="endArrow=classic;html=1;rounded=0;strokeColor=light-dark(#000000,#000000);strokeWidth=2;" edge="1" parent="1">
          <mxGeometry width="50" height="50" relative="1" as="geometry">
            <mxPoint x="290" y="350" as="sourcePoint" />
            <mxPoint x="350" y="350" as="targetPoint" />
          </mxGeometry>
        </mxCell>
        <mxCell id="1xBhV_vblewTtPQ-xvQc-40" value="Rectangle[ ] instance" style="text;html=1;align=center;verticalAlign=middle;resizable=0;points=[];autosize=1;fontColor=light-dark(#000000,#000000);" vertex="1" parent="1">
          <mxGeometry x="350" y="530" width="140" height="30" as="geometry" />
        </mxCell>
        <mxCell id="1xBhV_vblewTtPQ-xvQc-47" value="&lt;div style=&quot;background-color: rgb(30, 31, 34); padding: 0px 0px 0px 2px;&quot;&gt;&lt;div style=&quot;font-family: Menlo; white-space: pre; color: rgb(204, 204, 204);&quot;&gt;&lt;p style=&quot;color: light-dark(rgb(204, 204, 204), rgb(62, 62, 62)); margin: 0px;&quot;&gt;&lt;font style=&quot;font-size: 16px;&quot;&gt;&lt;span style=&quot;color: rgb(204, 108, 29);&quot;&gt;public&lt;/span&gt;&lt;span style=&quot;color: rgb(217, 232, 247);&quot;&gt; &lt;/span&gt;&lt;span style=&quot;color: rgb(204, 108, 29);&quot;&gt;class&lt;/span&gt;&lt;span style=&quot;color: rgb(217, 232, 247);&quot;&gt; &lt;/span&gt;&lt;span style=&quot;color: rgb(18, 144, 195);&quot;&gt;Rectangle&lt;/span&gt;&lt;span style=&quot;color: rgb(217, 232, 247);&quot;&gt; &lt;/span&gt;&lt;span style=&quot;color: rgb(249, 250, 244);&quot;&gt;{&lt;/span&gt;&lt;/font&gt;&lt;/p&gt;&lt;p style=&quot;margin: 0px;&quot;&gt;&lt;font style=&quot;font-size: 16px;&quot;&gt;&lt;span style=&quot;color: rgb(204, 108, 29);&quot;&gt;&lt;font color=&quot;#3e3e3e&quot;&gt;  &lt;/font&gt;&lt;/span&gt;&lt;span style=&quot;color: rgb(204, 108, 29);&quot;&gt;public&lt;/span&gt;&lt;span style=&quot;color: rgb(217, 232, 247);&quot;&gt; &lt;/span&gt;&lt;span style=&quot;color: rgb(204, 108, 29);&quot;&gt;int&lt;/span&gt;&lt;span style=&quot;color: rgb(217, 232, 247);&quot;&gt; &lt;/span&gt;&lt;span style=&quot;color: rgb(102, 225, 248);&quot;&gt;width&lt;/span&gt;&lt;span style=&quot;color: rgb(230, 230, 250);&quot;&gt;,&lt;/span&gt;&lt;span style=&quot;color: rgb(217, 232, 247);&quot;&gt; &lt;/span&gt;&lt;span style=&quot;color: rgb(102, 225, 248);&quot;&gt;height&lt;/span&gt;&lt;span style=&quot;color: rgb(230, 230, 250);&quot;&gt;;&lt;/span&gt;&lt;/font&gt;&lt;/p&gt;&lt;p style=&quot;color: light-dark(rgb(204, 204, 204), rgb(62, 62, 62)); margin: 0px;&quot;&gt;&lt;span style=&quot;color: rgb(230, 230, 250);&quot;&gt;&lt;font style=&quot;font-size: 16px;&quot;&gt;}&lt;/font&gt;&lt;/span&gt;&lt;/p&gt;&lt;/div&gt;&lt;/div&gt;" style="rounded=0;whiteSpace=wrap;html=1;align=left;" vertex="1" parent="1">
          <mxGeometry x="80" y="40" width="250" height="50" as="geometry" />
        </mxCell>
        <mxCell id="1xBhV_vblewTtPQ-xvQc-48" value="&lt;div style=&quot;background-color: rgb(30, 31, 34); padding: 0px 0px 0px 2px;&quot;&gt;&lt;div style=&quot;font-family: Menlo; white-space: pre; color: rgb(204, 204, 204);&quot;&gt;&lt;div style=&quot;background-color: rgb(30, 31, 34); padding: 0px 0px 0px 2px;&quot;&gt;&lt;div style=&quot;&quot;&gt;&lt;p style=&quot;color: rgb(204, 204, 204); margin: 0px;&quot;&gt;&lt;font style=&quot;font-size: 16px;&quot;&gt;&lt;span style=&quot;color: rgb(18, 144, 195);&quot;&gt;ArrayList&lt;/span&gt;&lt;span style=&quot;color: rgb(230, 230, 250);&quot;&gt;&amp;lt;&lt;/span&gt;&lt;span style=&quot;color: rgb(177, 102, 218);&quot;&gt;Rectangle&lt;/span&gt;&lt;span style=&quot;color: rgb(230, 230, 250);&quot;&gt;&amp;gt;&lt;/span&gt;&lt;span style=&quot;color: rgb(217, 232, 247);&quot;&gt; &lt;/span&gt;&lt;span style=&quot;color: rgb(242, 242, 0);&quot;&gt;frames&lt;/span&gt;&lt;span style=&quot;color: rgb(217, 232, 247);&quot;&gt; &lt;/span&gt;&lt;span style=&quot;color: rgb(230, 230, 250);&quot;&gt;=&lt;/span&gt;&lt;span style=&quot;color: rgb(217, 232, 247);&quot;&gt; &lt;/span&gt;&lt;span style=&quot;color: rgb(204, 108, 29);&quot;&gt;new&lt;/span&gt;&lt;span style=&quot;color: rgb(217, 232, 247);&quot;&gt; &lt;/span&gt;&lt;span style=&quot;color: rgb(167, 236, 33);&quot;&gt;ArrayList&lt;/span&gt;&lt;span style=&quot;color: rgb(230, 230, 250);&quot;&gt;&amp;lt;&lt;/span&gt;&lt;span style=&quot;color: rgb(177, 102, 218);&quot;&gt;Rectangle&lt;/span&gt;&lt;span style=&quot;color: rgb(230, 230, 250);&quot;&gt;&amp;gt;&lt;/span&gt;&lt;span style=&quot;color: rgb(249, 250, 244);&quot;&gt;()&lt;/span&gt;&lt;span style=&quot;color: rgb(230, 230, 250);&quot;&gt;;&lt;/span&gt;&lt;/font&gt;&lt;/p&gt;&lt;p style=&quot;color: rgb(204, 204, 204); margin: 0px;&quot;&gt;&lt;font style=&quot;font-size: 16px;&quot;&gt;&lt;span style=&quot;color: rgb(204, 108, 29);&quot;&gt;for&lt;/span&gt;&lt;span style=&quot;color: rgb(249, 250, 244);&quot;&gt;(&lt;/span&gt;&lt;span style=&quot;color: rgb(204, 108, 29);&quot;&gt;int&lt;/span&gt;&lt;span style=&quot;color: rgb(217, 232, 247);&quot;&gt; &lt;/span&gt;&lt;span style=&quot;color: rgb(242, 242, 0);&quot;&gt;i&lt;/span&gt;&lt;span style=&quot;color: rgb(230, 230, 250);&quot;&gt;=&lt;/span&gt;&lt;span style=&quot;color: rgb(104, 151, 187);&quot;&gt;0&lt;/span&gt;&lt;span style=&quot;color: rgb(230, 230, 250);&quot;&gt;;&lt;/span&gt;&lt;span style=&quot;color: rgb(217, 232, 247);&quot;&gt; &lt;/span&gt;&lt;span style=&quot;color: rgb(243, 236, 121);&quot;&gt;i&lt;/span&gt;&lt;span style=&quot;color: rgb(217, 232, 247);&quot;&gt; &lt;/span&gt;&lt;span style=&quot;color: rgb(230, 230, 250);&quot;&gt;&amp;lt;&lt;/span&gt;&lt;span style=&quot;color: rgb(217, 232, 247);&quot;&gt; &lt;/span&gt;&lt;span style=&quot;color: rgb(104, 151, 187);&quot;&gt;4&lt;/span&gt;&lt;span style=&quot;color: rgb(230, 230, 250);&quot;&gt;;&lt;/span&gt;&lt;span style=&quot;color: rgb(217, 232, 247);&quot;&gt; &lt;/span&gt;&lt;span style=&quot;color: rgb(243, 236, 121);&quot;&gt;i&lt;/span&gt;&lt;span style=&quot;color: rgb(230, 230, 250);&quot;&gt;++&lt;/span&gt;&lt;span style=&quot;color: rgb(249, 250, 244);&quot;&gt;)&lt;/span&gt;&lt;span style=&quot;color: rgb(217, 232, 247);&quot;&gt; &lt;/span&gt;&lt;span style=&quot;color: rgb(249, 250, 244);&quot;&gt;{&lt;/span&gt;&lt;/font&gt;&lt;/p&gt;&lt;p style=&quot;margin: 0px;&quot;&gt;&lt;font style=&quot;font-size: 16px;&quot;&gt;&lt;font color=&quot;#cccccc&quot;&gt;  &lt;/font&gt;&lt;span style=&quot;color: rgb(204, 108, 29);&quot;&gt;int&lt;/span&gt;&lt;span style=&quot;color: rgb(217, 232, 247);&quot;&gt; &lt;/span&gt;&lt;span style=&quot;color: rgb(242, 242, 0);&quot;&gt;w&lt;/span&gt;&lt;span style=&quot;color: rgb(217, 232, 247);&quot;&gt; &lt;/span&gt;&lt;span style=&quot;color: rgb(230, 230, 250);&quot;&gt;=&lt;/span&gt;&lt;span style=&quot;color: rgb(217, 232, 247);&quot;&gt; &lt;/span&gt;&lt;span style=&quot;color: rgb(249, 250, 244);&quot;&gt;(&lt;/span&gt;&lt;span style=&quot;color: rgb(204, 108, 29);&quot;&gt;int&lt;/span&gt;&lt;span style=&quot;color: rgb(249, 250, 244);&quot;&gt;)(&lt;/span&gt;&lt;span style=&quot;color: rgb(18, 144, 195);&quot;&gt;Math&lt;/span&gt;&lt;span style=&quot;color: rgb(230, 230, 250);&quot;&gt;.&lt;/span&gt;&lt;span style=&quot;color: rgb(150, 236, 63); font-style: italic;&quot;&gt;random&lt;/span&gt;&lt;span style=&quot;color: rgb(249, 250, 244);&quot;&gt;()&lt;/span&gt;&lt;span style=&quot;color: rgb(217, 232, 247);&quot;&gt; &lt;/span&gt;&lt;span style=&quot;color: rgb(230, 230, 250);&quot;&gt;*&lt;/span&gt;&lt;span style=&quot;color: rgb(217, 232, 247);&quot;&gt; &lt;/span&gt;&lt;span style=&quot;color: rgb(104, 151, 187);&quot;&gt;20&lt;/span&gt;&lt;span style=&quot;color: rgb(217, 232, 247);&quot;&gt; &lt;/span&gt;&lt;span style=&quot;color: rgb(230, 230, 250);&quot;&gt;+&lt;/span&gt;&lt;span style=&quot;color: rgb(217, 232, 247);&quot;&gt; &lt;/span&gt;&lt;span style=&quot;color: rgb(104, 151, 187);&quot;&gt;1&lt;/span&gt;&lt;span style=&quot;color: rgb(249, 250, 244);&quot;&gt;)&lt;/span&gt;&lt;span style=&quot;color: rgb(230, 230, 250);&quot;&gt;;&lt;/span&gt;&lt;/font&gt;&lt;/p&gt;&lt;p style=&quot;margin: 0px;&quot;&gt;&lt;font style=&quot;font-size: 16px;&quot;&gt;&lt;font color=&quot;#cccccc&quot;&gt;  &lt;/font&gt;&lt;span style=&quot;color: rgb(204, 108, 29);&quot;&gt;int&lt;/span&gt;&lt;span style=&quot;color: rgb(217, 232, 247);&quot;&gt; &lt;/span&gt;&lt;span style=&quot;color: rgb(242, 242, 0);&quot;&gt;h&lt;/span&gt;&lt;span style=&quot;color: rgb(217, 232, 247);&quot;&gt; &lt;/span&gt;&lt;span style=&quot;color: rgb(230, 230, 250);&quot;&gt;=&lt;/span&gt;&lt;span style=&quot;color: rgb(217, 232, 247);&quot;&gt; &lt;/span&gt;&lt;span style=&quot;color: rgb(249, 250, 244);&quot;&gt;(&lt;/span&gt;&lt;span style=&quot;color: rgb(204, 108, 29);&quot;&gt;int&lt;/span&gt;&lt;span style=&quot;color: rgb(249, 250, 244);&quot;&gt;)(&lt;/span&gt;&lt;span style=&quot;color: rgb(18, 144, 195);&quot;&gt;Math&lt;/span&gt;&lt;span style=&quot;color: rgb(230, 230, 250);&quot;&gt;.&lt;/span&gt;&lt;span style=&quot;color: rgb(150, 236, 63); font-style: italic;&quot;&gt;random&lt;/span&gt;&lt;span style=&quot;color: rgb(249, 250, 244);&quot;&gt;()&lt;/span&gt;&lt;span style=&quot;color: rgb(217, 232, 247);&quot;&gt; &lt;/span&gt;&lt;span style=&quot;color: rgb(230, 230, 250);&quot;&gt;*&lt;/span&gt;&lt;span style=&quot;color: rgb(217, 232, 247);&quot;&gt; &lt;/span&gt;&lt;span style=&quot;color: rgb(104, 151, 187);&quot;&gt;20&lt;/span&gt;&lt;span style=&quot;color: rgb(217, 232, 247);&quot;&gt; &lt;/span&gt;&lt;span style=&quot;color: rgb(230, 230, 250);&quot;&gt;+&lt;/span&gt;&lt;span style=&quot;color: rgb(217, 232, 247);&quot;&gt; &lt;/span&gt;&lt;span style=&quot;color: rgb(104, 151, 187);&quot;&gt;1&lt;/span&gt;&lt;span style=&quot;color: rgb(249, 250, 244);&quot;&gt;)&lt;/span&gt;&lt;span style=&quot;color: rgb(230, 230, 250);&quot;&gt;;&lt;/span&gt;&lt;/font&gt;&lt;/p&gt;&lt;p style=&quot;margin: 0px;&quot;&gt;&lt;font style=&quot;font-size: 16px;&quot;&gt;&lt;font color=&quot;#cccccc&quot;&gt;  &lt;/font&gt;&lt;span style=&quot;color: rgb(243, 236, 121);&quot;&gt;frames&lt;/span&gt;&lt;span style=&quot;color: rgb(230, 230, 250);&quot;&gt;.&lt;/span&gt;&lt;span style=&quot;color: rgb(167, 236, 33);&quot;&gt;add&lt;/span&gt;&lt;span style=&quot;color: rgb(249, 250, 244);&quot;&gt;(&lt;/span&gt;&lt;span style=&quot;color: rgb(204, 108, 29);&quot;&gt;new&lt;/span&gt;&lt;span style=&quot;color: rgb(217, 232, 247);&quot;&gt; &lt;/span&gt;&lt;span style=&quot;color: rgb(167, 236, 33);&quot;&gt;Rectangle&lt;/span&gt;&lt;span style=&quot;color: rgb(249, 250, 244);&quot;&gt;(&lt;/span&gt;&lt;span style=&quot;color: rgb(243, 236, 121);&quot;&gt;w&lt;/span&gt;&lt;span style=&quot;color: rgb(230, 230, 250);&quot;&gt;,&lt;/span&gt;&lt;span style=&quot;color: rgb(217, 232, 247);&quot;&gt; &lt;/span&gt;&lt;font color=&quot;#f3ec79&quot;&gt;h&lt;/font&gt;&lt;span style=&quot;color: rgb(249, 250, 244);&quot;&gt;))&lt;/span&gt;&lt;span style=&quot;color: rgb(230, 230, 250);&quot;&gt;;&lt;/span&gt;&lt;/font&gt;&lt;/p&gt;&lt;p style=&quot;color: rgb(204, 204, 204); margin: 0px;&quot;&gt;&lt;span style=&quot;color: rgb(249, 250, 244);&quot;&gt;&lt;font style=&quot;font-size: 16px;&quot;&gt;}&lt;/font&gt;&lt;/span&gt;&lt;/p&gt;&lt;/div&gt;&lt;/div&gt;&lt;/div&gt;&lt;/div&gt;" style="rounded=0;whiteSpace=wrap;html=1;align=left;glass=1;" vertex="1" parent="1">
          <mxGeometry x="80" y="140" width="330" height="70" as="geometry" />
        </mxCell>
      </root>
    </mxGraphModel>
  </diagram>
</mxfile>
